<svg id="SvgjsSvg1008" xmlns="http://www.w3.org/2000/svg" version="1.1" xmlns:xlink="http://www.w3.org/1999/xlink" xmlns:svgjs="http://svgjs.com/svgjs" width="35" height="25" viewBox="0 0 35 25"><title>preview</title><desc>Created with Avocode.</desc><defs id="SvgjsDefs1009"></defs><path id="SvgjsPath1010" d="M806.325 408.824C816.325 408.824 823.8050000000001 420.483 823.8050000000001 420.483C823.8050000000001 420.483 816.2620000000001 432.142 806.325 432.142C795.6990000000001 432.142 789.162 420.483 789.162 420.483C789.162 420.483 795.7620000000001 408.824 806.325 408.824ZM801.179 420.496C801.179 423.38899999999995 803.525 425.734 806.418 425.734C809.311 425.734 811.657 423.38899999999995 811.657 420.496C811.657 417.602 809.311 415.257 806.418 415.257C803.525 415.257 801.179 417.60200000000003 801.179 420.496ZM806.45 417.877C807.8900000000001 417.877 809.057 419.045 809.057 420.485C809.057 421.925 807.89 423.09200000000004 806.45 423.09200000000004C805.01 423.09200000000004 803.8430000000001 421.92500000000007 803.8430000000001 420.485C803.8430000000001 419.045 805.0100000000001 417.877 806.45 417.877Z " fill="#ffffff" fill-opacity="1" transform="matrix(1,0,0,1,-789,-408)"></path></svg>