<svg id="SvgjsSvg1020" xmlns="http://www.w3.org/2000/svg" version="1.1" xmlns:xlink="http://www.w3.org/1999/xlink" xmlns:svgjs="http://svgjs.com/svgjs" width="24" height="23" viewBox="0 0 24 23"><title>comments</title><desc>Created with Avocode.</desc><defs id="SvgjsDefs1021"></defs><path id="SvgjsPath1022" d="M216.668 1238.68L209 1245L210.725 1239.31C204.698 1238.85 200 1235.1599999999999 200 1230.6799999999998C200 1225.8899999999999 205.373 1221.9999999999998 212 1221.9999999999998C218.627 1221.9999999999998 224 1225.8899999999999 224 1230.6799999999998C224 1234.2799999999997 220.977 1237.36 216.668 1238.6799999999998ZM212 1223.81C206.756 1223.81 202.506 1226.8899999999999 202.506 1230.6799999999998C202.506 1234.4699999999998 206.756 1237.5499999999997 212 1237.5499999999997C217.243 1237.5499999999997 221.494 1234.4699999999998 221.494 1230.6799999999998C221.494 1226.8899999999999 217.243 1223.81 212 1223.81ZM207.5 1230.16L216.5 1230.16L216.5 1231.65L207.5 1231.65ZM207.5 1227.19L216.5 1227.19L216.5 1228.68L207.5 1228.68ZM214.259 1233.13L209.759 1233.13L209.759 1234.6100000000001L214.259 1234.6100000000001Z " fill="#2aacc8" fill-opacity="1" transform="matrix(1,0,0,1,-200,-1222)"></path></svg>