<svg id="SvgjsSvg1000" xmlns="http://www.w3.org/2000/svg" version="1.1" xmlns:xlink="http://www.w3.org/1999/xlink" xmlns:svgjs="http://svgjs.com/svgjs" width="31" height="27" viewBox="0 0 31 27"><title>paint brush</title><desc>Created with Avocode.</desc><defs id="SvgjsDefs1001"></defs><path id="SvgjsPath1007" d="M224.075 165.427C222.72099999999998 167.07399999999998 219.005 171.62199999999999 216.05399999999997 175.236L212.30799999999996 171.433C215.69699999999997 168.417 219.89199999999997 164.689 221.40799999999996 163.35299999999998C224.10599999999997 160.97699999999998 226.47099999999995 159.56199999999998 226.98399999999995 160.14C227.30499999999995 160.46099999999998 226.45199999999994 162.53699999999998 224.07499999999996 165.427ZM215.4 176.037C214.257 177.437 213.273 178.642 212.671 179.38L208.23499999999999 175.057C208.95399999999998 174.417 210.15099999999998 173.351 211.539 172.117ZM212.019 180.179L207.476 175.752C207.205 175.77200000000002 202.793 176.16400000000002 202.793 180.505C202.793 184.983 197.99200000000002 184.378 197.99200000000002 184.378C197.99200000000002 184.378 209.43400000000003 190.058 212.01000000000002 180.177L212.01000000000002 180.19C212.01000000000002 180.19 212.01800000000003 180.179 212.019 180.179Z " fill="#2aacc8" fill-opacity="1" transform="matrix(1,0,0,1,-197,-160)"></path></svg>