<svg id="SvgjsSvg1017" xmlns="http://www.w3.org/2000/svg" version="1.1" xmlns:xlink="http://www.w3.org/1999/xlink" xmlns:svgjs="http://svgjs.com/svgjs" width="21" height="18" viewBox="0 0 21 18"><title>fullscreen</title><desc>Created with Avocode.</desc><defs id="SvgjsDefs1018"></defs><path id="SvgjsPath1019" d="M471.888 705.272L487.10999999999996 705.272L487.10999999999996 693.715L471.888 693.715ZM473.374 695.032L485.624 695.032L485.624 703.955L473.374 703.955ZM474.815 702.553L484.228 702.553L484.228 696.434L474.815 696.434ZM470.492 692.313L473.374 692.313L473.374 690.996L469.00600000000003 690.996L469.00600000000003 695.0319999999999L470.492 695.0319999999999ZM488.506 695.032L489.99199999999996 695.032L489.99199999999996 690.9960000000001L485.62399999999997 690.9960000000001L485.62399999999997 692.3130000000001L488.506 692.3130000000001ZM489.992 707.991L489.992 703.955L488.50600000000003 703.955L488.50600000000003 706.6740000000001L485.624 706.6740000000001L485.624 707.9910000000001ZM470.492 706.674L473.374 706.674L473.374 707.991L469.00600000000003 707.991L469.00600000000003 703.955L470.492 703.955Z " fill="#ffffff" fill-opacity="1" transform="matrix(1,0,0,1,-469,-690)"></path></svg>