<svg id="SvgjsSvg1011" xmlns="http://www.w3.org/2000/svg" version="1.1" xmlns:xlink="http://www.w3.org/1999/xlink" xmlns:svgjs="http://svgjs.com/svgjs" width="20" height="26" viewBox="0 0 20 26"><title>link</title><desc>Created with Avocode.</desc><defs id="SvgjsDefs1012"></defs><path id="SvgjsPath1013" d="M878.361 413.808L874.861 419.87C874.309 420.827 873.086 421.15500000000003 872.129 420.60200000000003L871.263 420.10200000000003L872.263 418.37C872.741 418.646 873.3530000000001 418.482 873.629 418.004L876.129 413.67400000000004C876.405 413.196 876.241 412.58400000000006 875.763 412.30800000000005L872.299 410.30800000000005C871.821 410.03200000000004 871.209 410.196 870.933 410.67400000000004L868.433 415.004C868.157 415.482 868.321 416.094 868.799 416.37L867.799 418.10200000000003L866.933 417.60200000000003C865.976 417.05 865.649 415.82700000000006 866.201 414.87L869.701 408.808C870.253 407.851 871.476 407.524 872.433 408.07599999999996L877.629 411.07599999999996C878.586 411.628 878.913 412.85099999999994 878.361 413.808ZM866.531 424.298C866.053 424.022 865.8889999999999 423.411 866.165 422.932L870.165 416.004C870.4409999999999 415.526 871.053 415.362 871.531 415.63800000000003C872.0089999999999 415.91400000000004 872.173 416.526 871.8969999999999 417.004L867.8969999999999 423.932C867.621 424.411 867.0089999999999 424.575 866.531 424.298ZM866.799 419.834L865.933 419.334C864.976 418.782 863.753 419.11 863.201 420.06600000000003L859.701 426.129C859.149 427.08500000000004 859.476 428.308 860.433 428.86100000000005L865.629 431.86100000000005C866.586 432.41300000000007 867.809 432.08500000000004 868.361 431.129L871.861 425.06600000000003C872.413 424.11 872.086 422.88700000000006 871.129 422.334L870.263 421.834L869.263 423.56600000000003C869.741 423.84200000000004 869.9050000000001 424.454 869.629 424.932L867.129 429.26300000000003C866.8530000000001 429.74100000000004 866.241 429.90500000000003 865.763 429.62800000000004L862.299 427.629C861.821 427.35200000000003 861.6569999999999 426.74100000000004 861.933 426.26300000000003L864.433 421.932C864.709 421.454 865.321 421.29 865.799 421.56600000000003Z " fill="#ffffff" fill-opacity="1" transform="matrix(1,0,0,1,-859,-407)"></path></svg>