<svg id="SvgjsSvg1026" xmlns="http://www.w3.org/2000/svg" version="1.1" xmlns:xlink="http://www.w3.org/1999/xlink" xmlns:svgjs="http://svgjs.com/svgjs" width="24" height="21" viewBox="0 0 24 21"><title>clients</title><desc>Created with Avocode.</desc><defs id="SvgjsDefs1027"></defs><path id="SvgjsPath1028" d="M736.267 1234.01L733.1160000000001 1231.15C735.0120000000001 1230.5300000000002 736.1310000000001 1229.5700000000002 736.6630000000001 1228.99L736.6630000000001 1228.3700000000001C736.0080000000002 1228.49 734.5340000000001 1227.98 735.1470000000002 1227.68C735.4620000000002 1227.52 735.6400000000002 1227.23 735.7460000000002 1226.95C735.6890000000002 1226.78 735.6520000000002 1226.5900000000001 735.6410000000002 1226.4L735.6270000000002 1226.13C735.5890000000002 1226.14 735.5520000000001 1226.15 735.5100000000002 1226.15C735.2970000000003 1226.15 735.1250000000002 1225.98 735.1250000000002 1225.76L735.1250000000002 1224.97C735.1250000000002 1224.76 735.2970000000003 1224.58 735.5100000000002 1224.58C735.5220000000002 1224.58 735.5320000000003 1224.59 735.5430000000002 1224.59L735.5150000000002 1224.08C735.4380000000002 1222.6799999999998 736.4710000000002 1221.47 737.8270000000002 1221.47C739.1820000000002 1221.47 740.2130000000002 1222.68 740.1360000000002 1224.08L740.1070000000002 1224.59C740.1190000000001 1224.59 740.1280000000002 1224.58 740.1390000000002 1224.58C740.3520000000002 1224.58 740.5250000000002 1224.76 740.5250000000002 1224.97L740.5250000000002 1225.76C740.5250000000002 1225.98 740.3520000000002 1226.15 740.1390000000002 1226.15C740.0980000000002 1226.15 740.0600000000003 1226.14 740.0220000000003 1226.13L740.0070000000003 1226.4C739.9950000000003 1226.6200000000001 739.9420000000002 1226.8200000000002 739.8710000000003 1227.02C739.9800000000004 1227.28 740.1530000000004 1227.53 740.4420000000003 1227.68C741.0380000000004 1227.97 739.6670000000004 1228.46 738.9870000000003 1228.38L738.9870000000003 1228.99C739.5470000000003 1229.6 740.7500000000003 1230.64 742.8400000000003 1231.26C742.8400000000003 1231.26 743.9970000000003 1232.17 743.9970000000003 1233.09L743.9970000000003 1234.01ZM734.589 1226.83L734.589 1225.58C734.589 1225.23 734.3050000000001 1224.9499999999998 733.955 1224.9499999999998C733.936 1224.9499999999998 733.921 1224.9599999999998 733.902 1224.9599999999998L733.9490000000001 1224.1499999999999C734.0770000000001 1221.9199999999998 732.3800000000001 1219.9899999999998 730.152 1219.9899999999998C727.923 1219.9899999999998 726.225 1221.9199999999998 726.351 1224.1499999999999L726.396 1224.9599999999998C726.3779999999999 1224.9599999999998 726.362 1224.9499999999998 726.343 1224.9499999999998C725.9929999999999 1224.9499999999998 725.709 1225.2299999999998 725.709 1225.58L725.709 1226.83C725.709 1227.1799999999998 725.9929999999999 1227.46 726.343 1227.46C726.411 1227.46 726.473 1227.44 726.534 1227.42L726.558 1227.8500000000001C726.625 1229.0300000000002 727.288 1230.0400000000002 728.2379999999999 1230.6200000000001L728.2379999999999 1231.99C727.3159999999999 1232.96 725.338 1234.61 721.9029999999999 1235.6C721.9029999999999 1235.6 719.9999999999999 1237.07 719.9999999999999 1238.53L719.9999999999999 1239.99L740.2979999999999 1239.99L740.2979999999999 1238.53C740.2979999999999 1237.07 738.3949999999999 1235.6 738.3949999999999 1235.6C734.9599999999999 1234.61 732.9809999999999 1232.9599999999998 732.0599999999998 1231.99L732.0599999999998 1230.6200000000001C733.0079999999998 1230.0400000000002 733.6699999999998 1229.0300000000002 733.7369999999999 1227.8500000000001L733.7619999999998 1227.42C733.8239999999998 1227.44 733.8859999999999 1227.46 733.9549999999998 1227.46C734.3049999999998 1227.46 734.5889999999998 1227.18 734.5889999999998 1226.83Z " fill="#2aacc8" fill-opacity="1" transform="matrix(1,0,0,1,-720,-1219)"></path></svg>